  <svg
    version="1.0"
    xmlns="http://www.w3.org/2000/svg"
    xmlns:xlink="http://www.w3.org/1999/xlink"
    x="0"
    y="0"
    viewBox="0 0 230.000000 60.000000"
    preserveAspectRatio="xMidYMid meet"
    color-interpolation-filters="sRGB"
  >
    <defs><linearGradient id="92" x1="0%" y1="0%" x2="100%" y2="0%"><stop offset="0%" stop-color="#fa71cd"/> <stop offset="100%" stop-color="#9b59b6"/></linearGradient><linearGradient id="93" x1="0%" y1="0%" x2="100%" y2="0%"><stop offset="0%" stop-color="#f9d423"/> <stop offset="100%" stop-color="#f83600"/></linearGradient><linearGradient id="94" x1="0%" y1="0%" x2="100%" y2="0%"><stop offset="0%" stop-color="#0064d2"/> <stop offset="100%" stop-color="#1cb0f6"/></linearGradient><linearGradient id="95" x1="0%" y1="0%" x2="100%" y2="0%"><stop offset="0%" stop-color="#f00978"/> <stop offset="100%" stop-color="#3f51b1"/></linearGradient><linearGradient id="96" x1="0%" y1="0%" x2="100%" y2="0%"><stop offset="0%" stop-color="#7873f5"/> <stop offset="100%" stop-color="#ec77ab"/></linearGradient><linearGradient id="97" x1="0%" y1="0%" x2="100%" y2="0%"><stop offset="0%" stop-color="#f9d423"/> <stop offset="100%" stop-color="#e14fad"/></linearGradient><linearGradient id="98" x1="0%" y1="0%" x2="100%" y2="0%"><stop offset="0%" stop-color="#009efd"/> <stop offset="100%" stop-color="#2af598"/></linearGradient><linearGradient id="99" x1="0%" y1="0%" x2="100%" y2="0%"><stop offset="0%" stop-color="#ffcc00"/> <stop offset="100%" stop-color="#00b140"/></linearGradient><linearGradient id="100" x1="0%" y1="0%" x2="100%" y2="0%"><stop offset="0%" stop-color="#d51007"/> <stop offset="100%" stop-color="#ff8177"/></linearGradient><linearGradient id="102" x1="0%" y1="0%" x2="100%" y2="0%"><stop offset="0%" stop-color="#a2b6df"/> <stop offset="100%" stop-color="#0c3483"/></linearGradient><linearGradient id="103" x1="0%" y1="0%" x2="100%" y2="0%"><stop offset="0%" stop-color="#7ac5d8"/> <stop offset="100%" stop-color="#eea2a2"/></linearGradient><linearGradient id="104" x1="0%" y1="0%" x2="100%" y2="0%"><stop offset="0%" stop-color="#00ecbc"/> <stop offset="100%" stop-color="#007adf"/></linearGradient><linearGradient id="105" x1="0%" y1="0%" x2="100%" y2="0%"><stop offset="0%" stop-color="#b88746"/> <stop offset="100%" stop-color="#fdf5a6"/></linearGradient></defs> <g class="iconmbgsvg" transform="translate(6.275001525878906,4.99892044067383)"><g fill="#222D66" hollow-target="text"><g mask="url(#17a98bd7-46f7-40f2-82fb-725e58032bd2)"><rect fill="#222D66" fill-opacity="0" stroke-width="2" x="0" y="0" width="50" height="50" class="image-rect"/> <svg x="0" y="0" width="50" height="50" filtersec="colorsb213122780" class="image-svg-svg primary"><svg xmlns="http://www.w3.org/2000/svg" viewBox="0 0 231.03 231.03"><ellipse transform="rotate(-28.482 60.23 126.599)" fill="#0188FB" cx="60.24" cy="126.61" rx="8.99" ry="5.6"/><path fill="#0188FB" d="M68.52 169.76c-9.78-5.74-38.64-1.48-43.13-18.14-3.11-11.55 14.21-29.87 23.46-37.45 22.79-18.67 64.52-32.72 86.01-38.69 25.65-7.13 73.85-13.73 85.89-7.69-3.46-7.62-7.72-14.8-12.68-21.42-3.86 6.13-8.51 11.42-13.63 16.05-19.88 1.15-44.83 5.52-60.46 9.87-5.36 1.49-15.7 4.53-27.84 8.9 8.33-6.16 16.11-11.41 22.14-15.26 18.24-11.62 50.82-27.26 69.53-31.5C176.84 13.18 147.72 0 115.52 0 51.72 0 0 51.72 0 115.52c0 44.56 25.24 83.23 62.19 102.49 5.12-6.84 25.85-36.79 6.33-48.25z"/><path fill="#222D66" d="M223.05 73.24c-.5 1.09-1.4 2.31-2.78 3.68-36.76 36.36-101.91 19.25-103.51 37.86-.88 10.18 9.55 10.16 21.45 24.93 22.77 28.25-30.6 76.28-73.57 79.54 15.35 7.54 32.62 11.79 50.87 11.79 63.8 0 115.52-51.72 115.52-115.52 0-14.93-2.83-29.18-7.98-42.28z"/></svg></svg> </g> <g transform="translate(32.55000305175781,0.9760799407958984)"><g fill-rule="" class="tp-name"><g><path d="M40.40 0.05L33.40 0.05Q33.40 0.05 33.40 0L33.40 0L33.40-23.55L22-5.15Q21.95-5.10 21.95-5.15L21.95-5.15L10.55-23.55L10.55 0Q10.55 0.05 10.50 0.05L10.50 0.05L3.55 0.05Q3.50 0.05 3.50 0L3.50 0L3.50-34.95L-3.45-34.95Q-3.50-34.95-3.50-34.95L-3.50-34.95L-3.50-41.95Q-3.50-42-3.45-42L-3.45-42L3.55-42Q3.55-42 3.55-41.95L3.55-41.95L3.55-35L11.75-35L11.80-35L21.95-18.50L32.15-35L32.20-35L40.40-35Q40.45-35 40.45-34.95L40.45-34.95L40.45 0Q40.45 0.05 40.40 0.05L40.40 0.05ZM57.95-35L57.95-35L57.95-34.95L50.75-19.30L50.70-19.30L50.70-19.30L43.45-34.95L43.45-35L43.50-35L57.95-35ZM90.55-10.10L95.50-5.15Q95.55-5.10 95.50-5.10L95.50-5.10Q93-2.60 89.83-1.28Q86.65 0.05 83.10 0.05L83.10 0.05L54.20 0.05Q54.15 0.05 54.15 0L54.15 0L54.15-10.20L54.15-10.25L54.55-11L65.60-35L65.60-35L65.65-35L83.10-35Q86.65-35 89.83-33.68Q93-32.35 95.50-29.85L95.50-29.85Q95.55-29.85 95.50-29.80L95.50-29.80L90.55-24.85Q90.55-24.85 90.50-24.85L90.50-24.85Q89-26.40 87.05-27.18Q85.10-27.95 83.10-27.95Q81.10-27.95 79.18-27.18Q77.25-26.40 75.70-24.85L75.70-24.85Q74.20-23.35 73.43-21.43Q72.65-19.50 72.65-17.48Q72.65-15.45 73.43-13.53Q74.20-11.60 75.70-10.10L75.70-10.10Q77.25-8.55 79.18-7.80Q81.10-7.05 83.10-7.05Q85.10-7.05 87.05-7.80Q89-8.55 90.50-10.10L90.50-10.10Q90.55-10.10 90.55-10.10L90.55-10.10ZM107.45-11.75L99.90-11.75L99.85-11.75L99.85-11.80L103.65-23.55Q103.65-23.70 103.70-23.55L103.70-23.55L107.50-11.80L107.50-11.75L107.45-11.75ZM97.65-4.80L109.70-4.80L109.75-4.80L111.30 0L111.30 0L111.25 0.05L96.10 0.05L96.05 0L96.05 0L97.60-4.80L97.65-4.80ZM142.35-9.90L148.45 0L148.45 0L148.45 0.05L140.20 0.05L140.20 0L135.45-7.65Q135.10-7.60 134.80-7.60L134.80-7.60L125.60-7.60L125.60 0Q125.60 0.05 125.60 0.05L125.60 0.05L118.60 0.05L118.55 0L118.55 0L107.30-34.95L107.30-35L107.35-35L134.80-35Q137.60-35 140.10-33.93Q142.60-32.85 144.45-31Q146.30-29.15 147.38-26.65Q148.45-24.15 148.45-21.30L148.45-21.30Q148.45-17.85 146.85-14.85Q145.25-11.85 142.35-9.90L142.35-9.90ZM138.60-15.90L138.60-15.90Q139.95-16.85 140.68-18.28Q141.40-19.70 141.40-21.30L141.40-21.30Q141.40-22.70 140.88-23.90Q140.35-25.10 139.45-26Q138.55-26.90 137.35-27.43Q136.15-27.95 134.80-27.95L134.80-27.95L125.60-27.95L125.60-14.70L134.80-14.70Q136.90-14.70 138.60-15.90ZM163.90 0.05L151.55 0.05Q151.50 0.05 151.50 0L151.50 0L151.50-34.95Q151.50-35 151.55-35L151.55-35L163.90-35Q167.50-35 170.70-33.63Q173.90-32.25 176.28-29.88Q178.65-27.50 180.03-24.30Q181.40-21.10 181.40-17.50L181.40-17.50Q181.40-13.85 180.03-10.68Q178.65-7.50 176.28-5.10Q173.90-2.70 170.70-1.33Q167.50 0.05 163.90 0.05L163.90 0.05ZM158.55-27.95L158.55-7.05L163.90-7.05Q166.05-7.05 167.95-7.85Q169.85-8.65 171.28-10.08Q172.70-11.50 173.53-13.40Q174.35-15.30 174.35-17.50L174.35-17.50Q174.35-19.65 173.53-21.55Q172.70-23.45 171.28-24.88Q169.85-26.30 167.95-27.13Q166.05-27.95 163.90-27.95L163.90-27.95L158.55-27.95Z" transform="translate(3.5, 42)"/></g> </g> </g></g></g><mask id="17a98bd7-46f7-40f2-82fb-725e58032bd2"><g fill="white"><rect fill-opacity="1" stroke-width="2" x="0" y="0" width="50" height="50" class="image-rect"/> <svg x="0" y="0" width="50" height="50" filtersec="colorsb213122780" class="image-svg-svg primary"><svg xmlns="http://www.w3.org/2000/svg" viewBox="0 0 231.03 231.03"><ellipse transform="rotate(-28.482 60.23 126.599)" cx="60.24" cy="126.61" rx="8.99" ry="5.6"/><path d="M68.52 169.76c-9.78-5.74-38.64-1.48-43.13-18.14-3.11-11.55 14.21-29.87 23.46-37.45 22.79-18.67 64.52-32.72 86.01-38.69 25.65-7.13 73.85-13.73 85.89-7.69-3.46-7.62-7.72-14.8-12.68-21.42-3.86 6.13-8.51 11.42-13.63 16.05-19.88 1.15-44.83 5.52-60.46 9.87-5.36 1.49-15.7 4.53-27.84 8.9 8.33-6.16 16.11-11.41 22.14-15.26 18.24-11.62 50.82-27.26 69.53-31.5C176.84 13.18 147.72 0 115.52 0 51.72 0 0 51.72 0 115.52c0 44.56 25.24 83.23 62.19 102.49 5.12-6.84 25.85-36.79 6.33-48.25z"/><path d="M223.05 73.24c-.5 1.09-1.4 2.31-2.78 3.68-36.76 36.36-101.91 19.25-103.51 37.86-.88 10.18 9.55 10.16 21.45 24.93 22.77 28.25-30.6 76.28-73.57 79.54 15.35 7.54 32.62 11.79 50.87 11.79 63.8 0 115.52-51.72 115.52-115.52 0-14.93-2.83-29.18-7.98-42.28z"/></svg></svg> </g> <g transform="translate(32.55000305175781,0.9760799407958984)" fill="black" stroke="#000" stroke-width="6" stroke-linejoin="round"><g fill-rule="" class="tp-name"><g><path d="M40.40 0.05L33.40 0.05Q33.40 0.05 33.40 0L33.40 0L33.40-23.55L22-5.15Q21.95-5.10 21.95-5.15L21.95-5.15L10.55-23.55L10.55 0Q10.55 0.05 10.50 0.05L10.50 0.05L3.55 0.05Q3.50 0.05 3.50 0L3.50 0L3.50-34.95L-3.45-34.95Q-3.50-34.95-3.50-34.95L-3.50-34.95L-3.50-41.95Q-3.50-42-3.45-42L-3.45-42L3.55-42Q3.55-42 3.55-41.95L3.55-41.95L3.55-35L11.75-35L11.80-35L21.95-18.50L32.15-35L32.20-35L40.40-35Q40.45-35 40.45-34.95L40.45-34.95L40.45 0Q40.45 0.05 40.40 0.05L40.40 0.05ZM57.95-35L57.95-35L57.95-34.95L50.75-19.30L50.70-19.30L50.70-19.30L43.45-34.95L43.45-35L43.50-35L57.95-35ZM90.55-10.10L95.50-5.15Q95.55-5.10 95.50-5.10L95.50-5.10Q93-2.60 89.83-1.28Q86.65 0.05 83.10 0.05L83.10 0.05L54.20 0.05Q54.15 0.05 54.15 0L54.15 0L54.15-10.20L54.15-10.25L54.55-11L65.60-35L65.60-35L65.65-35L83.10-35Q86.65-35 89.83-33.68Q93-32.35 95.50-29.85L95.50-29.85Q95.55-29.85 95.50-29.80L95.50-29.80L90.55-24.85Q90.55-24.85 90.50-24.85L90.50-24.85Q89-26.40 87.05-27.18Q85.10-27.95 83.10-27.95Q81.10-27.95 79.18-27.18Q77.25-26.40 75.70-24.85L75.70-24.85Q74.20-23.35 73.43-21.43Q72.65-19.50 72.65-17.48Q72.65-15.45 73.43-13.53Q74.20-11.60 75.70-10.10L75.70-10.10Q77.25-8.55 79.18-7.80Q81.10-7.05 83.10-7.05Q85.10-7.05 87.05-7.80Q89-8.55 90.50-10.10L90.50-10.10Q90.55-10.10 90.55-10.10L90.55-10.10ZM107.45-11.75L99.90-11.75L99.85-11.75L99.85-11.80L103.65-23.55Q103.65-23.70 103.70-23.55L103.70-23.55L107.50-11.80L107.50-11.75L107.45-11.75ZM97.65-4.80L109.70-4.80L109.75-4.80L111.30 0L111.30 0L111.25 0.05L96.10 0.05L96.05 0L96.05 0L97.60-4.80L97.65-4.80ZM142.35-9.90L148.45 0L148.45 0L148.45 0.05L140.20 0.05L140.20 0L135.45-7.65Q135.10-7.60 134.80-7.60L134.80-7.60L125.60-7.60L125.60 0Q125.60 0.05 125.60 0.05L125.60 0.05L118.60 0.05L118.55 0L118.55 0L107.30-34.95L107.30-35L107.35-35L134.80-35Q137.60-35 140.10-33.93Q142.60-32.85 144.45-31Q146.30-29.15 147.38-26.65Q148.45-24.15 148.45-21.30L148.45-21.30Q148.45-17.85 146.85-14.85Q145.25-11.85 142.35-9.90L142.35-9.90ZM138.60-15.90L138.60-15.90Q139.95-16.85 140.68-18.28Q141.40-19.70 141.40-21.30L141.40-21.30Q141.40-22.70 140.88-23.90Q140.35-25.10 139.45-26Q138.55-26.90 137.35-27.43Q136.15-27.95 134.80-27.95L134.80-27.95L125.60-27.95L125.60-14.70L134.80-14.70Q136.90-14.70 138.60-15.90ZM163.90 0.05L151.55 0.05Q151.50 0.05 151.50 0L151.50 0L151.50-34.95Q151.50-35 151.55-35L151.55-35L163.90-35Q167.50-35 170.70-33.63Q173.90-32.25 176.28-29.88Q178.65-27.50 180.03-24.30Q181.40-21.10 181.40-17.50L181.40-17.50Q181.40-13.85 180.03-10.68Q178.65-7.50 176.28-5.10Q173.90-2.70 170.70-1.33Q167.50 0.05 163.90 0.05L163.90 0.05ZM158.55-27.95L158.55-7.05L163.90-7.05Q166.05-7.05 167.95-7.85Q169.85-8.65 171.28-10.08Q172.70-11.50 173.53-13.40Q174.35-15.30 174.35-17.50L174.35-17.50Q174.35-19.65 173.53-21.55Q172.70-23.45 171.28-24.88Q169.85-26.30 167.95-27.13Q166.05-27.95 163.90-27.95L163.90-27.95L158.55-27.95Z" transform="translate(3.5, 42)"/></g> </g> </g></mask><defs v-gra="od"/>
  </svg>